{"asset":{"version":"2.0","generator":"babylon.js glTF exporter for 3dsmax 2018 v20220210.4"},"scene":0,"scenes":[{"nodes":[0]}],"nodes":[{"children":[1,4],"translation":[7.36389165E-06,0.000128674321,-2.13165276E-06],"name":"EL18"},{"children":[2],"translation":[-1.68200734E-06,1.93786619E-07,6.71591761E-06],"rotation":[0.0,-0.1731452,0.0,0.9848963],"scale":[0.99999994,1.0,0.99999994],"name":"Group004"},{"children":[3],"translation":[-6.90355728E-06,-0.000128544925,-2.367314E-06],"rotation":[0.0,0.173648223,0.0,0.9848078],"scale":[1.15479994,1.15479994,1.15479994],"name":"Group001"},{"mesh":0,"translation":[1.09522304E-11,-3.79268243E-07,0.09989108],"rotation":[0.0,0.7071068,0.0,0.7071067],"scale":[1.609525,1.60952485,1.609525],"name":"Model_pCylinder2","extras":{"renderOrder":0,"frustumCulling":true,"animAuto":true,"animLoop":"Repeat","animRepeatInfinite":true,"animRepeatCount":1.0,"animOffset":0.0,"animUseCustomRange":false,"animCustomRangeFrom":0,"animCustomRangeTo":100,"animSkeletonRoot":false}},{"children":[5],"translation":[-0.0620274134,-0.000128771208,-0.105101913],"name":"Group005"},{"children":[6,9],"translation":[0.07122943,0.007074869,0.09288763],"rotation":[0.121718258,-0.124455422,0.7236701,0.6678301],"scale":[1.00464284,0.9976297,1.04940593],"name":"Group006"},{"children":[7,8],"translation":[-0.002300901,-5.187577E-05,-0.00615246035],"rotation":[-0.4485077,0.510611951,0.640535355,0.357534319],"scale":[20.11001,40.936676,40.9366722],"name":"jante"},{"mesh":1,"translation":[0.0,7.510651E-10,-3.05157144E-09],"rotation":[9.685753E-08,-5.99520349E-15,3.10862489E-15,1.0],"scale":[1.0,1.00000012,1.00000012],"name":"Enlèv. mat.-Extru.5","extras":{"renderOrder":0,"frustumCulling":true,"animAuto":true,"animLoop":"Repeat","animRepeatInfinite":true,"animRepeatCount":1.0,"animOffset":0.0,"animUseCustomRange":false,"animCustomRangeFrom":0,"animCustomRangeTo":100,"animSkeletonRoot":false}},{"mesh":2,"translation":[0.0,7.510651E-10,-3.05157144E-09],"rotation":[9.685753E-08,-5.99520349E-15,3.10862489E-15,1.0],"scale":[1.0,1.00000012,1.00000012],"name":"Boss.-Extru.2","extras":{"renderOrder":0,"frustumCulling":true,"animAuto":true,"animLoop":"Repeat","animRepeatInfinite":true,"animRepeatCount":1.0,"animOffset":0.0,"animUseCustomRange":false,"animCustomRangeFrom":0,"animCustomRangeTo":100,"animSkeletonRoot":false}},{"mesh":3,"translation":[-0.0103950649,1.138494,0.730445743],"rotation":[-0.229774475,0.262258917,0.1166963,0.929949462],"scale":[0.21702075,0.1839085,0.2360297],"name":"Cylinder005","extras":{"renderOrder":0,"frustumCulling":true,"animAuto":true,"animLoop":"Repeat","animRepeatInfinite":true,"animRepeatCount":1.0,"animOffset":0.0,"animUseCustomRange":false,"animCustomRangeFrom":0,"animCustomRangeTo":100,"animSkeletonRoot":false}}],"meshes":[{"primitives":[{"attributes":{"POSITION":1,"NORMAL":2},"indices":0,"material":0}],"name":"Model_pCylinder2"},{"primitives":[{"attributes":{"POSITION":4,"NORMAL":5},"indices":3,"material":1}],"name":"Enlèv. mat.-Extru.5"},{"primitives":[{"attributes":{"POSITION":7,"NORMAL":8,"TEXCOORD_0":9},"indices":6,"material":1}],"name":"Boss.-Extru.2"},{"primitives":[{"attributes":{"POSITION":11,"NORMAL":12,"TEXCOORD_0":13},"indices":10,"material":0}],"name":"Cylinder005"}],"accessors":[{"bufferView":0,"componentType":5125,"count":616728,"type":"SCALAR","name":"accessorIndices"},{"bufferView":1,"componentType":5126,"count":102984,"max":[0.6400386,1.92100215,1.92100191],"min":[-0.5159137,-1.92100167,-1.92100191],"type":"VEC3","name":"accessorPositions"},{"bufferView":1,"byteOffset":1235808,"componentType":5126,"count":102984,"type":"VEC3","name":"accessorNormals"},{"bufferView":0,"byteOffset":2466912,"componentType":5123,"count":78402,"type":"SCALAR","name":"accessorIndices"},{"bufferView":1,"byteOffset":2471616,"componentType":5126,"count":18172,"max":[0.033441443,0.0372089855,0.0372076444],"min":[-0.0340946838,-0.03720362,-0.0372076444],"type":"VEC3","name":"accessorPositions"},{"bufferView":1,"byteOffset":2689680,"componentType":5126,"count":18172,"type":"VEC3","name":"accessorNormals"},{"bufferView":0,"byteOffset":2623716,"componentType":5123,"count":4440,"type":"SCALAR","name":"accessorIndices"},{"bufferView":1,"byteOffset":2907744,"componentType":5126,"count":1484,"max":[-0.0284143,0.00123697112,0.03370097],"min":[-0.0338892564,-0.00127305568,0.02913229],"type":"VEC3","name":"accessorPositions"},{"bufferView":1,"byteOffset":2925552,"componentType":5126,"count":1484,"type":"VEC3","name":"accessorNormals"},{"bufferView":2,"componentType":5126,"count":1484,"type":"VEC2","name":"accessorUVs"},{"bufferView":0,"byteOffset":2632596,"componentType":5123,"count":648,"type":"SCALAR","name":"accessorIndices"},{"bufferView":1,"byteOffset":2943360,"componentType":5126,"count":154,"max":[0.229164213,0.5218584,0.185520723],"min":[-0.229164273,0.0698510259,-0.185520664],"type":"VEC3","name":"accessorPositions"},{"bufferView":1,"byteOffset":2945208,"componentType":5126,"count":154,"type":"VEC3","name":"accessorNormals"},{"bufferView":2,"byteOffset":11872,"componentType":5126,"count":154,"type":"VEC2","name":"accessorUVs"}],"bufferViews":[{"buffer":0,"byteLength":2633892,"name":"bufferViewScalar"},{"buffer":0,"byteOffset":2633892,"byteLength":2947056,"byteStride":12,"name":"bufferViewFloatVec3"},{"buffer":0,"byteOffset":5580948,"byteLength":13104,"byteStride":8,"name":"bufferViewFloatVec2"}],"buffers":[{"uri":"EL18.bin","byteLength":5594052}],"materials":[{"pbrMetallicRoughness":{"baseColorFactor":[0.003921569,0.003921569,0.003921569,1.0],"metallicFactor":0.0,"roughnessFactor":0.495433748},"name":"14 - Default","extras":{"alphaMode":"Auto","depthWrite":true,"depthTest":true,"dithering":false}},{"pbrMetallicRoughness":{"baseColorFactor":[0.04705883,0.04705883,0.04705883,1.0],"metallicFactor":0.0,"roughnessFactor":0.267846435},"name":"15 - Defaultasda","extras":{"alphaMode":"Auto","depthWrite":true,"depthTest":true,"dithering":false}}]}