{"asset":{"version":"2.0","generator":"babylon.js glTF exporter for 3dsmax 2018 v20220210.4"},"scene":0,"scenes":[{"nodes":[0]}],"nodes":[{"children":[1,2,4,6,8,9],"translation":[-0.0323838741,-0.000463731383,0.008902073],"rotation":[0.0,-0.884987652,0.0,-0.4656145],"scale":[0.99999994,1.0,0.99999994],"name":"Globe"},{"mesh":0,"translation":[0.0136389174,0.00364399422,0.0184800755],"rotation":[0.0,-1.0,0.0,-2.24239738E-08],"scale":[0.3322596,0.3322596,0.3322596],"name":"Spher1","extras":{"renderOrder":0,"frustumCulling":true,"animAuto":true,"animLoop":"Repeat","animRepeatInfinite":true,"animRepeatCount":1.0,"animOffset":0.0,"animUseCustomRange":false,"animCustomRangeFrom":0,"animCustomRangeTo":100,"animSkeletonRoot":false}},{"children":[3],"mesh":1,"translation":[0.000160855765,0.00364399422,-2.620099],"rotation":[0.0,-1.0,0.0,2.28578809E-08],"scale":[0.325952381,0.3259524,0.325952381],"name":"US_map","extras":{"renderOrder":0,"frustumCulling":true,"animAuto":true,"animLoop":"Repeat","animRepeatInfinite":true,"animRepeatCount":1.0,"animOffset":0.0,"animUseCustomRange":false,"animCustomRangeFrom":0,"animCustomRangeTo":100,"animSkeletonRoot":false}},{"mesh":2,"rotation":[0.0,1.49011612E-08,0.0,1.0],"name":"TooBig2","extras":{"renderOrder":0,"frustumCulling":true,"animAuto":true,"animLoop":"Repeat","animRepeatInfinite":true,"animRepeatCount":1.0,"animOffset":0.0,"animUseCustomRange":false,"animCustomRangeFrom":0,"animCustomRangeTo":100,"animSkeletonRoot":false}},{"children":[5],"mesh":3,"translation":[0.000160855765,0.00364396349,-2.62009835],"rotation":[0.0,-1.0,0.0,2.28578809E-08],"scale":[0.325952381,0.3259524,0.325952381],"name":"US_ma1","extras":{"renderOrder":0,"frustumCulling":true,"animAuto":true,"animLoop":"Repeat","animRepeatInfinite":true,"animRepeatCount":1.0,"animOffset":0.0,"animUseCustomRange":false,"animCustomRangeFrom":0,"animCustomRangeTo":100,"animSkeletonRoot":false}},{"mesh":4,"rotation":[0.0,1.49011612E-08,0.0,1.0],"name":"TooBig1","extras":{"renderOrder":0,"frustumCulling":true,"animAuto":true,"animLoop":"Repeat","animRepeatInfinite":true,"animRepeatCount":1.0,"animOffset":0.0,"animUseCustomRange":false,"animCustomRangeFrom":0,"animCustomRangeTo":100,"animSkeletonRoot":false}},{"children":[7],"mesh":5,"translation":[0.000161146439,0.00364396349,-2.620099],"rotation":[0.0,-1.0,0.0,2.28578809E-08],"scale":[0.325952381,0.3259524,0.325952381],"name":"US_ma","extras":{"renderOrder":0,"frustumCulling":true,"animAuto":true,"animLoop":"Repeat","animRepeatInfinite":true,"animRepeatCount":1.0,"animOffset":0.0,"animUseCustomRange":false,"animCustomRangeFrom":0,"animCustomRangeTo":100,"animSkeletonRoot":false}},{"mesh":6,"rotation":[0.0,1.49011612E-08,0.0,1.0],"name":"TooBig0","extras":{"renderOrder":0,"frustumCulling":true,"animAuto":true,"animLoop":"Repeat","animRepeatInfinite":true,"animRepeatCount":1.0,"animOffset":0.0,"animUseCustomRange":false,"animCustomRangeFrom":0,"animCustomRangeTo":100,"animSkeletonRoot":false}},{"mesh":7,"translation":[0.00278989668,0.000463731383,-0.00890207],"rotation":[0.0,-1.0,0.0,-1.670845E-07],"scale":[0.9810173,0.9810173,0.9810173],"name":"Sphere001","extras":{"renderOrder":0,"frustumCulling":true,"animAuto":true,"animLoop":"Repeat","animRepeatInfinite":true,"animRepeatCount":1.0,"animOffset":0.0,"animUseCustomRange":false,"animCustomRangeFrom":0,"animCustomRangeTo":100,"animSkeletonRoot":false}},{"children":[10,17],"translation":[-0.009774198,2.98060456E-08,-0.009027816],"rotation":[0.0,-1.0,0.0,-1.81110778E-07],"scale":[0.329106,0.329106,0.329106],"name":"Group001"},{"children":[11,12,13,14,15,16],"mesh":8,"translation":[-0.0833844,0.0360602029,8.027746],"rotation":[0.0,-1.49011594E-08,0.0,1.0],"scale":[1.00000012,1.00000012,1.00000012],"name":"US_map_ext","extras":{"renderOrder":0,"frustumCulling":true,"animAuto":true,"animLoop":"Repeat","animRepeatInfinite":true,"animRepeatCount":1.0,"animOffset":0.0,"animUseCustomRange":false,"animCustomRangeFrom":0,"animCustomRangeTo":100,"animSkeletonRoot":false}},{"mesh":9,"rotation":[0.0,-1.49011594E-08,0.0,1.0],"scale":[1.00000012,1.00000012,1.00000012],"name":"TooBig3","extras":{"renderOrder":0,"frustumCulling":true,"animAuto":true,"animLoop":"Repeat","animRepeatInfinite":true,"animRepeatCount":1.0,"animOffset":0.0,"animUseCustomRange":false,"animCustomRangeFrom":0,"animCustomRangeTo":100,"animSkeletonRoot":false}},{"mesh":10,"rotation":[0.0,-1.49011594E-08,0.0,1.0],"scale":[1.00000012,1.00000012,1.00000012],"name":"TooBig4","extras":{"renderOrder":0,"frustumCulling":true,"animAuto":true,"animLoop":"Repeat","animRepeatInfinite":true,"animRepeatCount":1.0,"animOffset":0.0,"animUseCustomRange":false,"animCustomRangeFrom":0,"animCustomRangeTo":100,"animSkeletonRoot":false}},{"mesh":11,"rotation":[0.0,-1.49011594E-08,0.0,1.0],"scale":[1.00000012,1.00000012,1.00000012],"name":"TooBig5","extras":{"renderOrder":0,"frustumCulling":true,"animAuto":true,"animLoop":"Repeat","animRepeatInfinite":true,"animRepeatCount":1.0,"animOffset":0.0,"animUseCustomRange":false,"animCustomRangeFrom":0,"animCustomRangeTo":100,"animSkeletonRoot":false}},{"mesh":12,"rotation":[0.0,-1.49011594E-08,0.0,1.0],"scale":[1.00000012,1.00000012,1.00000012],"name":"TooBig6","extras":{"renderOrder":0,"frustumCulling":true,"animAuto":true,"animLoop":"Repeat","animRepeatInfinite":true,"animRepeatCount":1.0,"animOffset":0.0,"animUseCustomRange":false,"animCustomRangeFrom":0,"animCustomRangeTo":100,"animSkeletonRoot":false}},{"mesh":13,"rotation":[0.0,-1.49011594E-08,0.0,1.0],"scale":[1.00000012,1.00000012,1.00000012],"name":"TooBig7","extras":{"renderOrder":0,"frustumCulling":true,"animAuto":true,"animLoop":"Repeat","animRepeatInfinite":true,"animRepeatCount":1.0,"animOffset":0.0,"animUseCustomRange":false,"animCustomRangeFrom":0,"animCustomRangeTo":100,"animSkeletonRoot":false}},{"mesh":14,"rotation":[0.0,-1.49011594E-08,0.0,1.0],"scale":[1.00000012,1.00000012,1.00000012],"name":"TooBig8","extras":{"renderOrder":0,"frustumCulling":true,"animAuto":true,"animLoop":"Repeat","animRepeatInfinite":true,"animRepeatCount":1.0,"animOffset":0.0,"animUseCustomRange":false,"animCustomRangeFrom":0,"animCustomRangeTo":100,"animSkeletonRoot":false}},{"children":[18],"mesh":15,"translation":[-0.0833844,0.0360602029,8.027746],"rotation":[0.0,-1.49011594E-08,0.0,1.0],"scale":[1.00000012,1.00000012,1.00000012],"name":"US_map_fla","extras":{"renderOrder":0,"frustumCulling":true,"animAuto":true,"animLoop":"Repeat","animRepeatInfinite":true,"animRepeatCount":1.0,"animOffset":0.0,"animUseCustomRange":false,"animCustomRangeFrom":0,"animCustomRangeTo":100,"animSkeletonRoot":false}},{"mesh":16,"translation":[0.08086483,-0.0249878913,-0.093916744],"scale":[0.9904177,0.9904178,0.9904177],"name":"TooBig9","extras":{"renderOrder":0,"frustumCulling":true,"animAuto":true,"animLoop":"Repeat","animRepeatInfinite":true,"animRepeatCount":1.0,"animOffset":0.0,"animUseCustomRange":false,"animCustomRangeFrom":0,"animCustomRangeTo":100,"animSkeletonRoot":false}}],"meshes":[{"primitives":[{"attributes":{"POSITION":1,"NORMAL":2},"indices":0,"material":0}],"name":"Spher1"},{"primitives":[{"attributes":{"POSITION":4,"NORMAL":5},"indices":3,"material":1}],"name":"US_map"},{"primitives":[{"attributes":{"POSITION":7,"NORMAL":8},"indices":6,"material":1}],"name":"TooBig2"},{"primitives":[{"attributes":{"POSITION":10,"NORMAL":11},"indices":9,"material":1}],"name":"US_ma1"},{"primitives":[{"attributes":{"POSITION":13,"NORMAL":14},"indices":12,"material":1}],"name":"TooBig1"},{"primitives":[{"attributes":{"POSITION":16,"NORMAL":17},"indices":15,"material":1}],"name":"US_ma"},{"primitives":[{"attributes":{"POSITION":19,"NORMAL":20},"indices":18,"material":0}],"name":"TooBig0"},{"primitives":[{"attributes":{"POSITION":22,"NORMAL":23},"indices":21,"material":0}],"name":"Sphere001"},{"primitives":[{"attributes":{"POSITION":25,"NORMAL":26},"indices":24,"material":1}],"name":"US_map_ext"},{"primitives":[{"attributes":{"POSITION":28,"NORMAL":29},"indices":27,"material":1}],"name":"TooBig3"},{"primitives":[{"attributes":{"POSITION":31,"NORMAL":32},"indices":30,"material":1}],"name":"TooBig4"},{"primitives":[{"attributes":{"POSITION":34,"NORMAL":35},"indices":33,"material":1}],"name":"TooBig5"},{"primitives":[{"attributes":{"POSITION":37,"NORMAL":38},"indices":36,"material":1}],"name":"TooBig6"},{"primitives":[{"attributes":{"POSITION":40,"NORMAL":41},"indices":39,"material":1}],"name":"TooBig7"},{"primitives":[{"attributes":{"POSITION":43,"NORMAL":44},"indices":42,"material":1}],"name":"TooBig8"},{"primitives":[{"attributes":{"POSITION":46,"NORMAL":47},"indices":45,"material":1}],"name":"US_map_fla"},{"primitives":[{"attributes":{"POSITION":49,"NORMAL":50},"indices":48,"material":1}],"name":"TooBig9"}],"accessors":[{"bufferView":0,"componentType":5123,"count":16872,"type":"SCALAR","name":"accessorIndices"},{"bufferView":1,"componentType":5126,"count":3001,"max":[8.027828,8.027828,8.027828],"min":[-8.027828,-8.027828,-8.027828],"type":"VEC3","name":"accessorPositions"},{"bufferView":1,"byteOffset":36012,"componentType":5126,"count":3001,"type":"VEC3","name":"accessorNormals"},{"bufferView":0,"byteOffset":33744,"componentType":5123,"count":19893,"type":"SCALAR","name":"accessorIndices"},{"bufferView":1,"byteOffset":72024,"componentType":5126,"count":6483,"max":[8.070341,8.022085,-0.0214893855],"min":[-7.90805149,-8.089285,-16.0362434],"type":"VEC3","name":"accessorPositions"},{"bufferView":1,"byteOffset":149820,"componentType":5126,"count":6483,"type":"VEC3","name":"accessorNormals"},{"bufferView":0,"byteOffset":73532,"componentType":5123,"count":5211,"type":"SCALAR","name":"accessorIndices"},{"bufferView":1,"byteOffset":227616,"componentType":5126,"count":1779,"max":[3.541448,8.001654,-5.1297946],"min":[-2.85641885,-8.089285,-11.3076878],"type":"VEC3","name":"accessorPositions"},{"bufferView":1,"byteOffset":248964,"componentType":5126,"count":1779,"type":"VEC3","name":"accessorNormals"},{"bufferView":0,"byteOffset":83956,"componentType":5123,"count":19893,"type":"SCALAR","name":"accessorIndices"},{"bufferView":1,"byteOffset":270312,"componentType":5126,"count":6483,"max":[8.070341,8.022085,-0.0214893855],"min":[-7.90805149,-8.089285,-16.0362434],"type":"VEC3","name":"accessorPositions"},{"bufferView":1,"byteOffset":348108,"componentType":5126,"count":6483,"type":"VEC3","name":"accessorNormals"},{"bufferView":0,"byteOffset":123744,"componentType":5123,"count":2562,"type":"SCALAR","name":"accessorIndices"},{"bufferView":1,"byteOffset":425904,"componentType":5126,"count":890,"max":[3.541448,8.001654,-5.1297946],"min":[-2.85641885,-8.089285,-11.307641],"type":"VEC3","name":"accessorPositions"},{"bufferView":1,"byteOffset":436584,"componentType":5126,"count":890,"type":"VEC3","name":"accessorNormals"},{"bufferView":0,"byteOffset":128868,"componentType":5123,"count":19893,"type":"SCALAR","name":"accessorIndices"},{"bufferView":1,"byteOffset":447264,"componentType":5126,"count":6483,"max":[8.070341,8.022085,-0.0214893855],"min":[-7.90805149,-8.089285,-16.0362434],"type":"VEC3","name":"accessorPositions"},{"bufferView":1,"byteOffset":525060,"componentType":5126,"count":6483,"type":"VEC3","name":"accessorNormals"},{"bufferView":0,"byteOffset":168656,"componentType":5123,"count":5211,"type":"SCALAR","name":"accessorIndices"},{"bufferView":1,"byteOffset":602856,"componentType":5126,"count":1779,"max":[3.541448,8.001654,-5.1297946],"min":[-2.85641885,-8.089285,-11.3076878],"type":"VEC3","name":"accessorPositions"},{"bufferView":1,"byteOffset":624204,"componentType":5126,"count":1779,"type":"VEC3","name":"accessorNormals"},{"bufferView":0,"byteOffset":179080,"componentType":5123,"count":6624,"type":"SCALAR","name":"accessorIndices"},{"bufferView":1,"byteOffset":645552,"componentType":5126,"count":1106,"max":[2.69999981,2.69999981,2.69999981],"min":[-2.69999981,-2.69999981,-2.69999981],"type":"VEC3","name":"accessorPositions"},{"bufferView":1,"byteOffset":658824,"componentType":5126,"count":1106,"type":"VEC3","name":"accessorNormals"},{"bufferView":0,"byteOffset":192328,"componentType":5123,"count":156237,"type":"SCALAR","name":"accessorIndices"},{"bufferView":1,"byteOffset":672096,"componentType":5126,"count":51752,"max":[8.19988,8.147403,0.10572765],"min":[-8.030962,-8.219523,-16.1612186],"type":"VEC3","name":"accessorPositions"},{"bufferView":1,"byteOffset":1293120,"componentType":5126,"count":51752,"type":"VEC3","name":"accessorNormals"},{"bufferView":0,"byteOffset":504804,"componentType":5123,"count":54945,"type":"SCALAR","name":"accessorIndices"},{"bufferView":1,"byteOffset":1914144,"componentType":5126,"count":32597,"max":[8.196902,8.12867451,-2.95543575],"min":[-7.38960552,-7.962919,-16.1612186],"type":"VEC3","name":"accessorPositions"},{"bufferView":1,"byteOffset":2305308,"componentType":5126,"count":32597,"type":"VEC3","name":"accessorNormals"},{"bufferView":0,"byteOffset":614696,"componentType":5123,"count":56643,"type":"SCALAR","name":"accessorIndices"},{"bufferView":1,"byteOffset":2696472,"componentType":5126,"count":32540,"max":[8.03270149,8.147403,-0.0660014],"min":[-4.48425,-4.22758961,-13.8170328],"type":"VEC3","name":"accessorPositions"},{"bufferView":1,"byteOffset":3086952,"componentType":5126,"count":32540,"type":"VEC3","name":"accessorNormals"},{"bufferView":0,"byteOffset":727984,"componentType":5123,"count":52086,"type":"SCALAR","name":"accessorIndices"},{"bufferView":1,"byteOffset":3477432,"componentType":5126,"count":32520,"max":[8.19988,7.875689,0.10225112],"min":[-1.768888,-4.28954029,-14.0600052],"type":"VEC3","name":"accessorPositions"},{"bufferView":1,"byteOffset":3867672,"componentType":5126,"count":32520,"type":"VEC3","name":"accessorNormals"},{"bufferView":0,"byteOffset":832156,"componentType":5123,"count":12429,"type":"SCALAR","name":"accessorIndices"},{"bufferView":1,"byteOffset":4257912,"componentType":5126,"count":6506,"max":[8.093744,7.67890024,0.101665884],"min":[-8.030824,-6.42786074,-14.151598],"type":"VEC3","name":"accessorPositions"},{"bufferView":1,"byteOffset":4335984,"componentType":5126,"count":6506,"type":"VEC3","name":"accessorNormals"},{"bufferView":0,"byteOffset":857016,"componentType":5123,"count":12897,"type":"SCALAR","name":"accessorIndices"},{"bufferView":1,"byteOffset":4414056,"componentType":5126,"count":7745,"max":[3.594626,8.070854,-1.29958963],"min":[-7.609308,-8.219523,-11.989315],"type":"VEC3","name":"accessorPositions"},{"bufferView":1,"byteOffset":4506996,"componentType":5126,"count":7745,"type":"VEC3","name":"accessorNormals"},{"bufferView":0,"byteOffset":882812,"componentType":5123,"count":5634,"type":"SCALAR","name":"accessorIndices"},{"bufferView":1,"byteOffset":4599936,"componentType":5126,"count":4046,"max":[5.11264,8.107453,-2.244732],"min":[-3.9633944,-2.9311626,-15.7888174],"type":"VEC3","name":"accessorPositions"},{"bufferView":1,"byteOffset":4648488,"componentType":5126,"count":4046,"type":"VEC3","name":"accessorNormals"},{"bufferView":0,"byteOffset":894080,"componentType":5123,"count":40044,"type":"SCALAR","name":"accessorIndices"},{"bufferView":1,"byteOffset":4697040,"componentType":5126,"count":12970,"max":[8.073743,8.022085,-0.0207111388],"min":[-7.90805149,-8.09265,-16.03672],"type":"VEC3","name":"accessorPositions"},{"bufferView":1,"byteOffset":4852680,"componentType":5126,"count":12970,"type":"VEC3","name":"accessorNormals"},{"bufferView":0,"byteOffset":974168,"componentType":5123,"count":5211,"type":"SCALAR","name":"accessorIndices"},{"bufferView":1,"byteOffset":5008320,"componentType":5126,"count":1779,"max":[3.541448,8.001654,-5.1297946],"min":[-2.85641885,-8.089285,-11.3076878],"type":"VEC3","name":"accessorPositions"},{"bufferView":1,"byteOffset":5029668,"componentType":5126,"count":1779,"type":"VEC3","name":"accessorNormals"}],"bufferViews":[{"buffer":0,"byteLength":984592,"name":"bufferViewScalar"},{"buffer":0,"byteOffset":984592,"byteLength":5051016,"byteStride":12,"name":"bufferViewFloatVec3"}],"buffers":[{"uri":"Globe.bin","byteLength":6035608}],"materials":[{"pbrMetallicRoughness":{"baseColorFactor":[0.054901965,0.215686291,0.5058824,1.0],"metallicFactor":0.0,"roughnessFactor":0.450053632},"name":"19 - Default","extras":{"alphaMode":"Auto","depthWrite":true,"depthTest":true,"dithering":false}},{"pbrMetallicRoughness":{"baseColorFactor":[0.011764707,0.07450981,0.215686291,1.0],"metallicFactor":0.0,"roughnessFactor":0.0},"doubleSided":true,"name":"20 - Default","extras":{"babylonSeparateCullingPass":false,"alphaMode":"Auto","twoSided":false,"depthWrite":true,"depthTest":true,"dithering":false,"gltfCompat":false}}]}