{"asset":{"version":"2.0","generator":"babylon.js glTF exporter for 3dsmax 2018 v20220210.4"},"scene":0,"scenes":[{"nodes":[0,9]}],"nodes":[{"children":[1,4],"translation":[-0.0613356866,7.747384E-07,-0.0933182538],"rotation":[0.07338694,-0.157378763,0.4161978,0.8925389],"scale":[0.99999994,1.0,1.0],"name":"IT30"},{"children":[2,3],"translation":[-5.843272E-05,-2.42233273E-08,1.47580622E-05],"rotation":[0.5792279,-0.405579835,0.405579835,0.5792279],"scale":[4.292527,4.29252768,4.292528],"name":"Group001"},{"mesh":0,"translation":[-6.055832E-09,0.0,0.0],"rotation":[7.450581E-09,3.552714E-15,-7.10542736E-15,1.0],"scale":[1.0,1.0,0.99999994],"name":"inner","extras":{"currentUVSet":"map1","renderOrder":0,"frustumCulling":true,"animAuto":true,"animLoop":"Repeat","animRepeatInfinite":true,"animRepeatCount":1.0,"animOffset":0.0,"animUseCustomRange":false,"animCustomRangeFrom":0,"animCustomRangeTo":100,"animSkeletonRoot":false}},{"mesh":1,"translation":[-6.055832E-09,0.0,0.0],"rotation":[7.450581E-09,3.552714E-15,-7.10542736E-15,1.0],"scale":[1.0,1.0,0.99999994],"name":"body","extras":{"currentUVSet":"map1","renderOrder":0,"frustumCulling":true,"animAuto":true,"animLoop":"Repeat","animRepeatInfinite":true,"animRepeatCount":1.0,"animOffset":0.0,"animUseCustomRange":false,"animCustomRangeFrom":0,"animCustomRangeTo":100,"animSkeletonRoot":false}},{"children":[5,8],"translation":[0.0214359984,0.000852761033,0.0550376326],"name":"Group002"},{"children":[6,7],"translation":[-0.002145872,2.46199852E-05,-0.006208849],"rotation":[-0.448507637,0.510611951,0.640535355,0.3575343],"scale":[20.1100082,40.93667,40.9366646],"name":"jante"},{"mesh":2,"translation":[0.0,7.56979E-10,-3.12253823E-09],"rotation":[8.940697E-08,4.440892E-16,3.3306695E-15,1.0],"scale":[1.0,0.99999994,1.0],"name":"Enlèv. mat.-Extru.5","extras":{"renderOrder":0,"frustumCulling":true,"animAuto":true,"animLoop":"Repeat","animRepeatInfinite":true,"animRepeatCount":1.0,"animOffset":0.0,"animUseCustomRange":false,"animCustomRangeFrom":0,"animCustomRangeTo":100,"animSkeletonRoot":false}},{"mesh":3,"translation":[0.0,7.56979E-10,-3.12253823E-09],"rotation":[8.940697E-08,4.440892E-16,3.3306695E-15,1.0],"scale":[1.0,0.99999994,1.0],"name":"Boss.-Extru.2","extras":{"renderOrder":0,"frustumCulling":true,"animAuto":true,"animLoop":"Repeat","animRepeatInfinite":true,"animRepeatCount":1.0,"animOffset":0.0,"animUseCustomRange":false,"animCustomRangeFrom":0,"animCustomRangeTo":100,"animSkeletonRoot":false}},{"mesh":4,"translation":[-0.0100342957,1.14019859,0.7362846],"rotation":[-0.229774445,0.2622589,0.116696358,0.929949462],"scale":[0.236029685,0.183908477,0.23602964],"name":"Cylinder003","extras":{"renderOrder":0,"frustumCulling":true,"animAuto":true,"animLoop":"Repeat","animRepeatInfinite":true,"animRepeatCount":1.0,"animOffset":0.0,"animUseCustomRange":false,"animCustomRangeFrom":0,"animCustomRangeTo":100,"animSkeletonRoot":false}},{"translation":[0.474878669,-2.3925908E-05,-0.199690789],"rotation":[0.50000006,-0.49999997,0.5000001,0.49999997],"scale":[4.37558937,4.37558937,4.37558937],"name":"IT30 (1)"}],"meshes":[{"primitives":[{"attributes":{"POSITION":1,"NORMAL":2},"indices":0,"material":0}],"name":"inner"},{"primitives":[{"attributes":{"POSITION":4,"NORMAL":5},"indices":3,"material":0}],"name":"body"},{"primitives":[{"attributes":{"POSITION":7,"NORMAL":8},"indices":6,"material":1}],"name":"Enlèv. mat.-Extru.5"},{"primitives":[{"attributes":{"POSITION":10,"NORMAL":11},"indices":9,"material":1}],"name":"Boss.-Extru.2"},{"primitives":[{"attributes":{"POSITION":13,"NORMAL":14,"TEXCOORD_0":15},"indices":12,"material":0}],"name":"Cylinder003"}],"accessors":[{"bufferView":0,"componentType":5123,"count":7284,"type":"SCALAR","name":"accessorIndices"},{"bufferView":1,"componentType":5126,"count":1231,"max":[0.0962416157,0.5078604,0.507826865],"min":[-0.0962415859,-0.5078772,-0.507881],"type":"VEC3","name":"accessorPositions"},{"bufferView":1,"byteOffset":14772,"componentType":5126,"count":1231,"type":"VEC3","name":"accessorNormals"},{"bufferView":0,"byteOffset":14568,"componentType":5123,"count":261111,"type":"SCALAR","name":"accessorIndices"},{"bufferView":1,"byteOffset":29544,"componentType":5126,"count":45113,"max":[0.2593523,0.674653649,0.674618542],"min":[-0.2593523,-0.674653649,-0.674618542],"type":"VEC3","name":"accessorPositions"},{"bufferView":1,"byteOffset":570900,"componentType":5126,"count":45113,"type":"VEC3","name":"accessorNormals"},{"bufferView":0,"byteOffset":536792,"componentType":5123,"count":195774,"type":"SCALAR","name":"accessorIndices"},{"bufferView":1,"byteOffset":1112256,"componentType":5126,"count":39987,"max":[0.033441443,0.0372089855,0.0372076444],"min":[-0.0340946838,-0.03720362,-0.0372076444],"type":"VEC3","name":"accessorPositions"},{"bufferView":1,"byteOffset":1592100,"componentType":5126,"count":39987,"type":"VEC3","name":"accessorNormals"},{"bufferView":0,"byteOffset":928340,"componentType":5123,"count":2220,"type":"SCALAR","name":"accessorIndices"},{"bufferView":1,"byteOffset":2071944,"componentType":5126,"count":740,"max":[-0.0292650368,0.00124995492,0.03357775],"min":[-0.03371245,-0.0012495945,0.0291304067],"type":"VEC3","name":"accessorPositions"},{"bufferView":1,"byteOffset":2080824,"componentType":5126,"count":740,"type":"VEC3","name":"accessorNormals"},{"bufferView":0,"byteOffset":932780,"componentType":5123,"count":648,"type":"SCALAR","name":"accessorIndices"},{"bufferView":1,"byteOffset":2089704,"componentType":5126,"count":154,"max":[0.229164213,0.5218584,0.185520723],"min":[-0.229164273,0.0834259,-0.185520664],"type":"VEC3","name":"accessorPositions"},{"bufferView":1,"byteOffset":2091552,"componentType":5126,"count":154,"type":"VEC3","name":"accessorNormals"},{"bufferView":2,"componentType":5126,"count":154,"type":"VEC2","name":"accessorUVs"}],"bufferViews":[{"buffer":0,"byteLength":934076,"name":"bufferViewScalar"},{"buffer":0,"byteOffset":934076,"byteLength":2093400,"byteStride":12,"name":"bufferViewFloatVec3"},{"buffer":0,"byteOffset":3027476,"byteLength":1232,"byteStride":8,"name":"bufferViewFloatVec2"}],"buffers":[{"uri":"IT30.bin","byteLength":3028708}],"materials":[{"pbrMetallicRoughness":{"baseColorFactor":[0.003921569,0.003921569,0.003921569,1.0],"metallicFactor":0.0,"roughnessFactor":0.495433748},"name":"14 - Default","extras":{"alphaMode":"Auto","depthWrite":true,"depthTest":true,"dithering":false}},{"pbrMetallicRoughness":{"baseColorFactor":[0.04705883,0.04705883,0.04705883,1.0],"metallicFactor":0.0,"roughnessFactor":0.267846435},"name":"15 - Defaultasda","extras":{"alphaMode":"Auto","depthWrite":true,"depthTest":true,"dithering":false}}]}