{"asset":{"version":"2.0","generator":"babylon.js glTF exporter for 3dsmax 2018 v20220210.4"},"scene":0,"scenes":[{"nodes":[0,15]}],"nodes":[{"children":[1,6],"translation":[1.93786619E-07,-1.93786619E-07,-0.0198419821],"name":"Jumbo"},{"children":[2],"translation":[0.0,0.0,0.0040113586],"name":"Jumbo XT"},{"children":[3],"translation":[1.93786619E-07,1.93786619E-07,0.015830623],"name":"Group003"},{"children":[4,5],"mesh":0,"translation":[-4.14592E-08,1.96418358E-18,-1.81283166E-08],"rotation":[0.707106948,3.161013E-08,-5.26835677E-08,0.7071066],"scale":[0.99999994,0.99999994,1.0],"name":"80_100_18_54P_JUMBO_XT_TEG_TL_RPT","extras":{"renderOrder":0,"frustumCulling":true,"animAuto":true,"animLoop":"Repeat","animRepeatInfinite":true,"animRepeatCount":1.0,"animOffset":0.0,"animUseCustomRange":false,"animCustomRangeFrom":0,"animCustomRangeTo":100,"animSkeletonRoot":false}},{"mesh":1,"translation":[0.0,0.0,4.229948E-16],"rotation":[1.42108564E-14,-8.881785E-16,3.55271453E-15,1.0],"scale":[0.99999994,0.99999994,1.0],"name":"Side_Wall","extras":{"renderOrder":0,"frustumCulling":true,"animAuto":true,"animLoop":"Repeat","animRepeatInfinite":true,"animRepeatCount":1.0,"animOffset":0.0,"animUseCustomRange":false,"animCustomRangeFrom":0,"animCustomRangeTo":100,"animSkeletonRoot":false}},{"mesh":2,"translation":[-0.000263646682,-3.14291336E-11,7.858086E-12],"rotation":[4.371139E-08,-4.371141E-08,1.0,-4.06198038E-16],"scale":[0.99999994,0.99999994,1.0],"name":"Side_Wall_1","extras":{"renderOrder":0,"frustumCulling":true,"animAuto":true,"animLoop":"Repeat","animRepeatInfinite":true,"animRepeatCount":1.0,"animOffset":0.0,"animUseCustomRange":false,"animCustomRangeFrom":0,"animCustomRangeTo":100,"animSkeletonRoot":false}},{"children":[7],"translation":[-1.93786619E-07,0.0,-0.06283189],"scale":[1.0,1.0,0.6677553],"name":"Remora"},{"children":[8,11],"translation":[0.0,3.78794056E-07,0.08267387],"rotation":[0.0499504134,-0.120590545,0.379409522,0.91597563],"scale":[0.919451952,0.919451654,0.9194516],"name":"Group002"},{"children":[9],"translation":[0.000130036118,0.000114503644,-0.000107917949],"rotation":[0.43045944,-0.560985565,-0.5609855,-0.43045935],"scale":[13.8519125,13.8519125,13.8519115],"name":"honda rim"},{"children":[10],"rotation":[0.0,0.0,-3.55271368E-15,1.0],"name":"honda rim (1)"},{"mesh":3,"rotation":[0.0,0.0,-3.55271368E-15,1.0],"name":"Fillet23","extras":{"animAuto":true,"animLoop":"Repeat","animRepeatInfinite":true,"animRepeatCount":1.0,"animOffset":0.0,"animUseCustomRange":false,"animCustomRangeFrom":0,"animCustomRangeTo":100,"animSkeletonRoot":false,"renderOrder":0,"frustumCulling":true}},{"children":[12,13,14],"translation":[0.32496956,-0.108352773,-1.36376858],"rotation":[0.19719626,-0.08547906,0.653228462,0.7260162],"scale":[1.11177433,1.11177444,1.11177468],"name":"Group002 (1)"},{"mesh":4,"translation":[2.41077375,-0.626601,0.2338429],"rotation":[0.183963835,0.052591037,0.519598246,0.832712],"scale":[0.276124537,0.276124567,0.276124537],"name":"Cylinder003","extras":{"animAuto":true,"animLoop":"Repeat","animRepeatInfinite":true,"animRepeatCount":1.0,"animOffset":0.0,"animUseCustomRange":false,"animCustomRangeFrom":0,"animCustomRangeTo":100,"animSkeletonRoot":false,"renderOrder":0,"frustumCulling":true}},{"mesh":5,"translation":[2.47529531,-0.656596065,0.206924677],"rotation":[0.183043376,0.05201673,0.519655764,0.832914948],"scale":[0.276124537,0.2761246,0.276124626],"name":"Cylinder004","extras":{"animAuto":true,"animLoop":"Repeat","animRepeatInfinite":true,"animRepeatCount":1.0,"animOffset":0.0,"animUseCustomRange":false,"animCustomRangeFrom":0,"animCustomRangeTo":100,"animSkeletonRoot":false,"renderOrder":0,"frustumCulling":true}},{"mesh":6,"translation":[2.564012,-0.6965441,0.167902932],"rotation":[0.258282,-0.07764135,0.479375839,0.835141361],"scale":[0.609568655,0.6095687,0.6095687],"name":"Star002","extras":{"renderOrder":0,"frustumCulling":true,"animAuto":true,"animLoop":"Repeat","animRepeatInfinite":true,"animRepeatCount":1.0,"animOffset":0.0,"animUseCustomRange":false,"animCustomRangeFrom":0,"animCustomRangeTo":100,"animSkeletonRoot":false}},{"translation":[0.474878669,-2.3925908E-05,-0.199690789],"rotation":[0.50000006,-0.49999997,0.5000001,0.49999997],"scale":[4.37558937,4.37558937,4.37558937],"name":"IT30"}],"meshes":[{"primitives":[{"attributes":{"POSITION":1,"NORMAL":2},"indices":0,"material":0}],"name":"80_100_18_54P_JUMBO_XT_TEG_TL_RPT"},{"primitives":[{"attributes":{"POSITION":4,"NORMAL":5},"indices":3,"material":1},{"attributes":{"POSITION":7,"NORMAL":8},"indices":6,"material":0}],"name":"Side_Wall"},{"primitives":[{"attributes":{"POSITION":10,"NORMAL":11},"indices":9,"material":2},{"attributes":{"POSITION":13,"NORMAL":14},"indices":12,"material":3}],"name":"Side_Wall_1"},{"primitives":[{"attributes":{"POSITION":16,"NORMAL":17},"indices":15,"material":4}],"name":"Fillet23"},{"primitives":[{"attributes":{"POSITION":19,"NORMAL":20,"TEXCOORD_0":21},"indices":18,"material":5}],"name":"Cylinder003"},{"primitives":[{"attributes":{"POSITION":23,"NORMAL":24,"TEXCOORD_0":25},"indices":22,"material":4}],"name":"Cylinder004"},{"primitives":[{"attributes":{"POSITION":27,"NORMAL":28},"indices":26,"material":4}],"name":"Star002"}],"accessors":[{"bufferView":0,"componentType":5125,"count":528642,"type":"SCALAR","name":"accessorIndices"},{"bufferView":1,"componentType":5126,"count":227147,"max":[3.67823124,0.498104483,3.67795253],"min":[-3.67823124,-0.498104483,-3.67795229],"type":"VEC3","name":"accessorPositions"},{"bufferView":1,"byteOffset":2725764,"componentType":5126,"count":227147,"type":"VEC3","name":"accessorNormals"},{"bufferView":0,"byteOffset":2114568,"componentType":5123,"count":2466,"type":"SCALAR","name":"accessorIndices"},{"bufferView":1,"byteOffset":5451528,"componentType":5126,"count":1393,"max":[3.090694,0.4602298,2.50793552],"min":[-1.397557,0.4122978,-3.19861937],"type":"VEC3","name":"accessorPositions"},{"bufferView":1,"byteOffset":5468244,"componentType":5126,"count":1393,"type":"VEC3","name":"accessorNormals"},{"bufferView":0,"byteOffset":2119500,"componentType":5123,"count":2868,"type":"SCALAR","name":"accessorIndices"},{"bufferView":1,"byteOffset":5484960,"componentType":5126,"count":1652,"max":[3.187521,0.460651577,2.91142488],"min":[-3.18788052,0.408854485,-2.83142161],"type":"VEC3","name":"accessorPositions"},{"bufferView":1,"byteOffset":5504784,"componentType":5126,"count":1652,"type":"VEC3","name":"accessorNormals"},{"bufferView":0,"byteOffset":2125236,"componentType":5123,"count":2466,"type":"SCALAR","name":"accessorIndices"},{"bufferView":1,"byteOffset":5524608,"componentType":5126,"count":1393,"max":[3.090694,0.4602298,2.50793552],"min":[-1.397557,0.4122978,-3.19861937],"type":"VEC3","name":"accessorPositions"},{"bufferView":1,"byteOffset":5541324,"componentType":5126,"count":1393,"type":"VEC3","name":"accessorNormals"},{"bufferView":0,"byteOffset":2130168,"componentType":5123,"count":2868,"type":"SCALAR","name":"accessorIndices"},{"bufferView":1,"byteOffset":5558040,"componentType":5126,"count":1652,"max":[3.187521,0.460651577,2.91142488],"min":[-3.18788052,0.408854485,-2.83142161],"type":"VEC3","name":"accessorPositions"},{"bufferView":1,"byteOffset":5577864,"componentType":5126,"count":1652,"type":"VEC3","name":"accessorNormals"},{"bufferView":0,"byteOffset":2135904,"componentType":5123,"count":246174,"type":"SCALAR","name":"accessorIndices"},{"bufferView":1,"byteOffset":5597688,"componentType":5126,"count":49027,"max":[0.0600000024,0.2152668,0.21525903],"min":[-0.04315861,-0.21526593,-0.21525903],"type":"VEC3","name":"accessorPositions"},{"bufferView":1,"byteOffset":6186012,"componentType":5126,"count":49027,"type":"VEC3","name":"accessorNormals"},{"bufferView":0,"byteOffset":2628252,"componentType":5123,"count":636,"type":"SCALAR","name":"accessorIndices"},{"bufferView":1,"byteOffset":6774336,"componentType":5126,"count":150,"max":[0.2004071,0.5930209,0.197362483],"min":[-0.2004071,0.0,-0.197362468],"type":"VEC3","name":"accessorPositions"},{"bufferView":1,"byteOffset":6776136,"componentType":5126,"count":150,"type":"VEC3","name":"accessorNormals"},{"bufferView":2,"componentType":5126,"count":150,"type":"VEC2","name":"accessorUVs"},{"bufferView":0,"byteOffset":2629524,"componentType":5123,"count":636,"type":"SCALAR","name":"accessorIndices"},{"bufferView":1,"byteOffset":6777936,"componentType":5126,"count":150,"max":[0.155751273,0.6235826,0.153385073],"min":[-0.155751273,0.0,-0.153385058],"type":"VEC3","name":"accessorPositions"},{"bufferView":1,"byteOffset":6779736,"componentType":5126,"count":150,"type":"VEC3","name":"accessorNormals"},{"bufferView":2,"byteOffset":1200,"componentType":5126,"count":150,"type":"VEC2","name":"accessorUVs"},{"bufferView":0,"byteOffset":2630796,"componentType":5123,"count":132,"type":"SCALAR","name":"accessorIndices"},{"bufferView":1,"byteOffset":6781536,"componentType":5126,"count":72,"max":[0.116545126,0.1778,0.134119958],"min":[-0.116545126,0.0,-0.134119958],"type":"VEC3","name":"accessorPositions"},{"bufferView":1,"byteOffset":6782400,"componentType":5126,"count":72,"type":"VEC3","name":"accessorNormals"}],"bufferViews":[{"buffer":0,"byteLength":2631060,"name":"bufferViewScalar"},{"buffer":0,"byteOffset":2631060,"byteLength":6783264,"byteStride":12,"name":"bufferViewFloatVec3"},{"buffer":0,"byteOffset":9414324,"byteLength":2400,"byteStride":8,"name":"bufferViewFloatVec2"}],"buffers":[{"uri":"Jumbo XT.bin","byteLength":9416724}],"materials":[{"pbrMetallicRoughness":{"baseColorFactor":[0.003921569,0.003921569,0.003921569,1.0],"metallicFactor":0.0,"roughnessFactor":0.495433748},"name":"14 - Default","extras":{"alphaMode":"Auto","depthWrite":true,"depthTest":true,"dithering":false}},{"pbrMetallicRoughness":{"baseColorFactor":[0.230215833,0.230215833,0.230215833,1.0],"metallicFactor":0.0,"roughnessFactor":0.0},"doubleSided":true,"name":"16 - Default"},{"pbrMetallicRoughness":{"baseColorFactor":[0.230215833,0.230215833,0.230215833,1.0],"metallicFactor":0.0,"roughnessFactor":0.0},"doubleSided":true,"name":"18 - Default","extras":{"babylonSeparateCullingPass":false,"alphaMode":"Auto","twoSided":false,"depthWrite":true,"depthTest":true,"dithering":false,"gltfCompat":false}},{"pbrMetallicRoughness":{"baseColorFactor":[0.003921569,0.003921569,0.003921569,1.0],"metallicFactor":0.0,"roughnessFactor":0.495433748},"name":"14 - Defaultasda","extras":{"alphaMode":"Auto","depthWrite":true,"depthTest":true,"dithering":false}},{"pbrMetallicRoughness":{"baseColorFactor":[0.0,0.0,0.0,1.0],"metallicFactor":0.0,"roughnessFactor":0.267846435},"name":"15 - Defaultasda","extras":{"alphaMode":"Auto","depthWrite":true,"depthTest":true,"dithering":false}},{"pbrMetallicRoughness":{"baseColorFactor":[0.003921569,0.003921569,0.003921569,1.0],"metallicFactor":0.0,"roughnessFactor":0.495433748},"name":"Material #168","extras":{"alphaMode":"Auto","depthWrite":true,"depthTest":true,"dithering":false}}]}