{"asset":{"version":"2.0","generator":"babylon.js glTF exporter for 3dsmax 2018 v20220210.4"},"scene":0,"scenes":[{"nodes":[0]}],"nodes":[{"children":[1,4],"translation":[0.000817004358,-1.93786619E-07,-0.02373358],"rotation":[0.0,0.0,-0.04361932,0.999048233],"name":"Pancer Poly X"},{"children":[2,3],"mesh":0,"translation":[-0.0008170045,1.937807E-07,0.02373358],"rotation":[0.5003583,0.499674052,0.499641538,0.5003257],"scale":[0.99999994,1.0,0.99999994],"name":"100_90_17_PANCER_poly_X_TEG_TL__FT_RPT","extras":{"animAuto":true,"animLoop":"Repeat","animRepeatInfinite":true,"animRepeatCount":1.0,"animOffset":0.0,"animUseCustomRange":false,"animCustomRangeFrom":0,"animCustomRangeTo":100,"animSkeletonRoot":false,"renderOrder":0,"frustumCulling":true}},{"mesh":1,"rotation":[1.42108479E-14,0.0,-1.13686865E-13,1.0],"scale":[0.99999994,1.0,0.99999994],"name":"Side_wall","extras":{"renderOrder":0,"frustumCulling":true,"animAuto":true,"animLoop":"Repeat","animRepeatInfinite":true,"animRepeatCount":1.0,"animOffset":0.0,"animUseCustomRange":false,"animCustomRangeFrom":0,"animCustomRangeTo":100,"animSkeletonRoot":false}},{"mesh":2,"rotation":[-1.0,1.13686865E-13,0.0,4.37106E-08],"scale":[0.99999994,1.0,0.99999994],"name":"Side_wall_1","extras":{"renderOrder":0,"frustumCulling":true,"animAuto":true,"animLoop":"Repeat","animRepeatInfinite":true,"animRepeatCount":1.0,"animOffset":0.0,"animUseCustomRange":false,"animCustomRangeFrom":0,"animCustomRangeTo":100,"animSkeletonRoot":false}},{"children":[5],"translation":[-0.000817004358,-5.91389828E-12,0.02373358],"name":"Group005"},{"children":[6,9],"translation":[-0.000810028054,3.78808835E-07,0.04609469],"rotation":[0.130029544,0.0113760885,0.9876721,-0.0864102542],"scale":[0.8933546,0.893354654,0.8933551],"name":"Group006"},{"children":[7],"translation":[0.000130036875,0.000114503659,-0.000107911896],"rotation":[-0.43045944,0.5609855,0.560985565,0.43045938],"scale":[13.8519125,13.8519144,13.8519125],"name":"honda rim001"},{"children":[8],"rotation":[3.72529074E-09,-5.32907137E-15,-6.661339E-15,1.0],"scale":[0.99999994,0.99999994,0.99999994],"name":"honda rim"},{"mesh":3,"rotation":[3.72529074E-09,-5.32907137E-15,-6.661339E-15,1.0],"scale":[0.99999994,0.99999994,0.99999994],"name":"Fillet024","extras":{"renderOrder":0,"frustumCulling":true,"animAuto":true,"animLoop":"Repeat","animRepeatInfinite":true,"animRepeatCount":1.0,"animOffset":0.0,"animUseCustomRange":false,"animCustomRangeFrom":0,"animCustomRangeTo":100,"animSkeletonRoot":false}},{"children":[10,11,12],"translation":[0.32496956,-0.108352736,-1.36376858],"rotation":[0.19719629,-0.08547906,0.653228462,0.7260162],"scale":[1.11177444,1.11177444,1.11177456],"name":"Group002"},{"mesh":4,"translation":[2.41077352,-0.6266008,0.233843237],"rotation":[0.183963835,0.05259102,0.519598246,0.832712],"scale":[0.276124567,0.276124567,0.2761245],"name":"Cylinder005","extras":{"renderOrder":0,"frustumCulling":true,"animAuto":true,"animLoop":"Repeat","animRepeatInfinite":true,"animRepeatCount":1.0,"animOffset":0.0,"animUseCustomRange":false,"animCustomRangeFrom":0,"animCustomRangeTo":100,"animSkeletonRoot":false}},{"mesh":5,"translation":[2.47529554,-0.6565962,0.206924632],"rotation":[0.183043391,0.05201669,0.5196558,0.8329149],"scale":[0.276124567,0.2761246,0.276124626],"name":"Cylinder006","extras":{"renderOrder":0,"frustumCulling":true,"animAuto":true,"animLoop":"Repeat","animRepeatInfinite":true,"animRepeatCount":1.0,"animOffset":0.0,"animUseCustomRange":false,"animCustomRangeFrom":0,"animCustomRangeTo":100,"animSkeletonRoot":false}},{"mesh":6,"translation":[2.564012,-0.6965442,0.167903021],"rotation":[0.2582821,-0.07764138,0.479375929,0.8351413],"scale":[0.6095687,0.6095687,0.609568655],"name":"Star003","extras":{"renderOrder":0,"frustumCulling":true,"animAuto":true,"animLoop":"Repeat","animRepeatInfinite":true,"animRepeatCount":1.0,"animOffset":0.0,"animUseCustomRange":false,"animCustomRangeFrom":0,"animCustomRangeTo":100,"animSkeletonRoot":false}}],"meshes":[{"primitives":[{"attributes":{"POSITION":1,"NORMAL":2},"indices":0,"material":0}],"name":"100_90_17_PANCER_poly_X_TEG_TL__FT_RPT"},{"primitives":[{"attributes":{"POSITION":4,"NORMAL":5},"indices":3,"material":1},{"attributes":{"POSITION":7,"NORMAL":8},"indices":6,"material":0}],"name":"Side_wall"},{"primitives":[{"attributes":{"POSITION":10,"NORMAL":11},"indices":9,"material":1},{"attributes":{"POSITION":13,"NORMAL":14},"indices":12,"material":0}],"name":"Side_wall_1"},{"primitives":[{"attributes":{"POSITION":16,"NORMAL":17},"indices":15,"material":2}],"name":"Fillet024"},{"primitives":[{"attributes":{"POSITION":19,"NORMAL":20,"TEXCOORD_0":21},"indices":18,"material":0}],"name":"Cylinder005"},{"primitives":[{"attributes":{"POSITION":23,"NORMAL":24,"TEXCOORD_0":25},"indices":22,"material":2}],"name":"Cylinder006"},{"primitives":[{"attributes":{"POSITION":27,"NORMAL":28},"indices":26,"material":2}],"name":"Star003"}],"accessors":[{"bufferView":0,"componentType":5125,"count":192300,"type":"SCALAR","name":"accessorIndices"},{"bufferView":1,"componentType":5126,"count":76758,"max":[3.6521523,0.6487667,3.65188646],"min":[-3.6521523,-0.6487667,-3.650491],"type":"VEC3","name":"accessorPositions"},{"bufferView":1,"byteOffset":921096,"componentType":5126,"count":76758,"type":"VEC3","name":"accessorNormals"},{"bufferView":0,"byteOffset":769200,"componentType":5123,"count":8766,"type":"SCALAR","name":"accessorIndices"},{"bufferView":1,"byteOffset":1842192,"componentType":5126,"count":2617,"max":[-0.5496108,0.6119218,3.071218],"min":[-2.45384645,0.5772856,1.86292267],"type":"VEC3","name":"accessorPositions"},{"bufferView":1,"byteOffset":1873596,"componentType":5126,"count":2617,"type":"VEC3","name":"accessorNormals"},{"bufferView":0,"byteOffset":786732,"componentType":5123,"count":19008,"type":"SCALAR","name":"accessorIndices"},{"bufferView":1,"byteOffset":1905000,"componentType":5126,"count":5875,"max":[-0.568795741,0.611853659,-1.9962256],"min":[-2.31721616,0.578318357,-3.017149],"type":"VEC3","name":"accessorPositions"},{"bufferView":1,"byteOffset":1975500,"componentType":5126,"count":5875,"type":"VEC3","name":"accessorNormals"},{"bufferView":0,"byteOffset":824748,"componentType":5123,"count":8766,"type":"SCALAR","name":"accessorIndices"},{"bufferView":1,"byteOffset":2046000,"componentType":5126,"count":2617,"max":[-0.5496108,0.6119218,3.071218],"min":[-2.45384645,0.5772856,1.86292267],"type":"VEC3","name":"accessorPositions"},{"bufferView":1,"byteOffset":2077404,"componentType":5126,"count":2617,"type":"VEC3","name":"accessorNormals"},{"bufferView":0,"byteOffset":842280,"componentType":5123,"count":19008,"type":"SCALAR","name":"accessorIndices"},{"bufferView":1,"byteOffset":2108808,"componentType":5126,"count":5875,"max":[-0.568795741,0.611853659,-1.9962256],"min":[-2.31721616,0.578318357,-3.017149],"type":"VEC3","name":"accessorPositions"},{"bufferView":1,"byteOffset":2179308,"componentType":5126,"count":5875,"type":"VEC3","name":"accessorNormals"},{"bufferView":0,"byteOffset":880296,"componentType":5123,"count":184650,"type":"SCALAR","name":"accessorIndices"},{"bufferView":1,"byteOffset":2249808,"componentType":5126,"count":36994,"max":[0.0600000024,0.2152668,0.21525903],"min":[-0.04315861,-0.21526593,-0.21525903],"type":"VEC3","name":"accessorPositions"},{"bufferView":1,"byteOffset":2693736,"componentType":5126,"count":36994,"type":"VEC3","name":"accessorNormals"},{"bufferView":0,"byteOffset":1249596,"componentType":5123,"count":648,"type":"SCALAR","name":"accessorIndices"},{"bufferView":1,"byteOffset":3137664,"componentType":5126,"count":154,"max":[0.2004071,0.5930209,0.197362483],"min":[-0.2004071,0.0,-0.197362468],"type":"VEC3","name":"accessorPositions"},{"bufferView":1,"byteOffset":3139512,"componentType":5126,"count":154,"type":"VEC3","name":"accessorNormals"},{"bufferView":2,"componentType":5126,"count":154,"type":"VEC2","name":"accessorUVs"},{"bufferView":0,"byteOffset":1250892,"componentType":5123,"count":648,"type":"SCALAR","name":"accessorIndices"},{"bufferView":1,"byteOffset":3141360,"componentType":5126,"count":154,"max":[0.155751273,0.6235826,0.153385073],"min":[-0.155751273,0.0,-0.153385058],"type":"VEC3","name":"accessorPositions"},{"bufferView":1,"byteOffset":3143208,"componentType":5126,"count":154,"type":"VEC3","name":"accessorNormals"},{"bufferView":2,"byteOffset":1232,"componentType":5126,"count":154,"type":"VEC2","name":"accessorUVs"},{"bufferView":0,"byteOffset":1252188,"componentType":5123,"count":132,"type":"SCALAR","name":"accessorIndices"},{"bufferView":1,"byteOffset":3145056,"componentType":5126,"count":72,"max":[0.116545126,0.1778,0.134119958],"min":[-0.116545126,0.0,-0.134119958],"type":"VEC3","name":"accessorPositions"},{"bufferView":1,"byteOffset":3145920,"componentType":5126,"count":72,"type":"VEC3","name":"accessorNormals"}],"bufferViews":[{"buffer":0,"byteLength":1252452,"name":"bufferViewScalar"},{"buffer":0,"byteOffset":1252452,"byteLength":3146784,"byteStride":12,"name":"bufferViewFloatVec3"},{"buffer":0,"byteOffset":4399236,"byteLength":2464,"byteStride":8,"name":"bufferViewFloatVec2"}],"buffers":[{"uri":"Pancer Poly X.bin","byteLength":4401700}],"materials":[{"pbrMetallicRoughness":{"baseColorFactor":[0.003921569,0.003921569,0.003921569,1.0],"metallicFactor":0.0,"roughnessFactor":0.495433748},"name":"14 - Default","extras":{"alphaMode":"Auto","depthWrite":true,"depthTest":true,"dithering":false}},{"pbrMetallicRoughness":{"baseColorFactor":[0.201438859,0.201438859,0.201438859,1.0],"metallicFactor":0.0,"roughnessFactor":0.0},"doubleSided":true,"name":"16 - Default","extras":{"babylonSeparateCullingPass":false,"alphaMode":"Auto","twoSided":false,"depthWrite":true,"depthTest":true,"dithering":false,"gltfCompat":false}},{"pbrMetallicRoughness":{"baseColorFactor":[0.0,0.0,0.0,1.0],"metallicFactor":0.0,"roughnessFactor":0.267846435},"name":"15 - Defaultasda","extras":{"alphaMode":"Auto","depthWrite":true,"depthTest":true,"dithering":false}}]}