{"asset":{"version":"2.0","generator":"babylon.js glTF exporter for 3dsmax 2018 v20220210.4"},"scene":0,"scenes":[{"nodes":[0,9]}],"nodes":[{"children":[1,6],"translation":[-0.000688279863,0.0,0.00182842487],"rotation":[0.0,-0.173648208,0.0,0.9848078],"scale":[0.99999994,1.0,0.99999994],"name":"Group004"},{"children":[2,5],"translation":[-0.000701604469,1.743907E-10,-0.001987306],"rotation":[0.293382168,0.0281742141,0.703952849,0.646207035],"scale":[1.05568373,1.08707511,0.8209608],"name":"Group003"},{"children":[3,4],"translation":[-0.002145872,2.46220661E-05,-0.006208851],"rotation":[-0.4485077,0.510611951,0.640535355,0.357534319],"scale":[20.11001,40.93668,40.93667],"name":"jante"},{"mesh":0,"translation":[0.0,7.56979E-10,-3.02643755E-09],"rotation":[9.685754E-08,-1.50990314E-14,0.0,1.0],"scale":[1.00000012,1.0,1.00000012],"name":"Enlèv. mat.-Extru.5","extras":{"renderOrder":0,"frustumCulling":true,"animAuto":true,"animLoop":"Repeat","animRepeatInfinite":true,"animRepeatCount":1.0,"animOffset":0.0,"animUseCustomRange":false,"animCustomRangeFrom":0,"animCustomRangeTo":100,"animSkeletonRoot":false}},{"mesh":1,"translation":[0.0,7.56979E-10,-3.02643755E-09],"rotation":[9.685754E-08,-1.50990314E-14,0.0,1.0],"scale":[1.00000012,1.0,1.00000012],"name":"Boss.-Extru.2","extras":{"renderOrder":0,"frustumCulling":true,"animAuto":true,"animLoop":"Repeat","animRepeatInfinite":true,"animRepeatCount":1.0,"animOffset":0.0,"animUseCustomRange":false,"animCustomRangeFrom":0,"animCustomRangeTo":100,"animSkeletonRoot":false}},{"mesh":2,"translation":[-0.0102399727,1.13857055,0.7303893],"rotation":[-0.229774475,0.262258917,0.1166963,0.929949462],"scale":[0.21702072,0.1839085,0.236029685],"name":"Cylinder003","extras":{"renderOrder":0,"frustumCulling":true,"animAuto":true,"animLoop":"Repeat","animRepeatInfinite":true,"animRepeatCount":1.0,"animOffset":0.0,"animUseCustomRange":false,"animCustomRangeFrom":0,"animCustomRangeTo":100,"animSkeletonRoot":false}},{"children":[7,8],"translation":[2.13165276E-05,0.0,-1.04160313E-06],"rotation":[0.0,-0.5735765,0.0,0.819152],"scale":[2.78987479,2.789875,2.78987479],"name":"Group002"},{"mesh":3,"translation":[-0.0133997872,9.689331E-08,4.84466547E-08],"rotation":[0.0,1.42108564E-14,0.0,1.0],"scale":[0.99999994,1.0,0.99999994],"name":"TR18_Inner","extras":{"animAuto":true,"animLoop":"Repeat","animRepeatInfinite":true,"animRepeatCount":1.0,"animOffset":0.0,"animUseCustomRange":false,"animCustomRangeFrom":0,"animCustomRangeTo":100,"animSkeletonRoot":false,"renderOrder":0,"frustumCulling":true}},{"mesh":4,"translation":[-0.0133997872,9.689331E-08,4.84466547E-08],"rotation":[0.0,1.42108564E-14,0.0,1.0],"scale":[0.99999994,1.0,0.99999994],"name":"Body_TR18","extras":{"animAuto":true,"animLoop":"Repeat","animRepeatInfinite":true,"animRepeatCount":1.0,"animOffset":0.0,"animUseCustomRange":false,"animCustomRangeFrom":0,"animCustomRangeTo":100,"animSkeletonRoot":false,"renderOrder":0,"frustumCulling":true}},{"translation":[0.474878669,-2.3925908E-05,-0.199690789],"rotation":[0.50000006,-0.49999997,0.5000001,0.49999997],"scale":[4.37558937,4.37558937,4.37558937],"name":"IT30"}],"meshes":[{"primitives":[{"attributes":{"POSITION":1,"NORMAL":2},"indices":0,"material":0}],"name":"Enlèv. mat.-Extru.5"},{"primitives":[{"attributes":{"POSITION":4,"NORMAL":5},"indices":3,"material":0}],"name":"Boss.-Extru.2"},{"primitives":[{"attributes":{"POSITION":7,"NORMAL":8,"TEXCOORD_0":9},"indices":6,"material":1}],"name":"Cylinder003"},{"primitives":[{"attributes":{"POSITION":11,"NORMAL":12},"indices":10,"material":1}],"name":"TR18_Inner"},{"primitives":[{"attributes":{"POSITION":14,"NORMAL":15},"indices":13,"material":1}],"name":"Body_TR18"}],"accessors":[{"bufferView":0,"componentType":5123,"count":156648,"type":"SCALAR","name":"accessorIndices"},{"bufferView":1,"componentType":5126,"count":33447,"max":[0.033441443,0.0372089855,0.0372076444],"min":[-0.0340946838,-0.03720362,-0.0372076444],"type":"VEC3","name":"accessorPositions"},{"bufferView":1,"byteOffset":401364,"componentType":5126,"count":33447,"type":"VEC3","name":"accessorNormals"},{"bufferView":0,"byteOffset":313296,"componentType":5123,"count":1770,"type":"SCALAR","name":"accessorIndices"},{"bufferView":1,"byteOffset":802728,"componentType":5126,"count":590,"max":[-0.02841505,0.00123697112,0.03370093],"min":[-0.0338892564,-0.00127270177,0.0291327182],"type":"VEC3","name":"accessorPositions"},{"bufferView":1,"byteOffset":809808,"componentType":5126,"count":590,"type":"VEC3","name":"accessorNormals"},{"bufferView":0,"byteOffset":316836,"componentType":5123,"count":648,"type":"SCALAR","name":"accessorIndices"},{"bufferView":1,"byteOffset":816888,"componentType":5126,"count":154,"max":[0.229164213,0.5218584,0.185520723],"min":[-0.229164273,0.0698510259,-0.185520664],"type":"VEC3","name":"accessorPositions"},{"bufferView":1,"byteOffset":818736,"componentType":5126,"count":154,"type":"VEC3","name":"accessorNormals"},{"bufferView":2,"componentType":5126,"count":154,"type":"VEC2","name":"accessorUVs"},{"bufferView":0,"byteOffset":318132,"componentType":5123,"count":14046,"type":"SCALAR","name":"accessorIndices"},{"bufferView":1,"byteOffset":820584,"componentType":5126,"count":2448,"max":[0.157074541,0.749496937,0.7495837],"min":[-0.130274966,-0.7494982,-0.749580562],"type":"VEC3","name":"accessorPositions"},{"bufferView":1,"byteOffset":849960,"componentType":5126,"count":2448,"type":"VEC3","name":"accessorNormals"},{"bufferView":0,"byteOffset":346224,"componentType":5125,"count":746886,"type":"SCALAR","name":"accessorIndices"},{"bufferView":1,"byteOffset":879336,"componentType":5126,"count":125501,"max":[0.243116111,1.06734419,1.06756592],"min":[-0.216316536,-1.06734431,-1.06756592],"type":"VEC3","name":"accessorPositions"},{"bufferView":1,"byteOffset":2385348,"componentType":5126,"count":125501,"type":"VEC3","name":"accessorNormals"}],"bufferViews":[{"buffer":0,"byteLength":3333768,"name":"bufferViewScalar"},{"buffer":0,"byteOffset":3333768,"byteLength":3891360,"byteStride":12,"name":"bufferViewFloatVec3"},{"buffer":0,"byteOffset":7225128,"byteLength":1232,"byteStride":8,"name":"bufferViewFloatVec2"}],"buffers":[{"uri":"TR18.bin","byteLength":7226360}],"materials":[{"pbrMetallicRoughness":{"baseColorFactor":[0.04705883,0.04705883,0.04705883,1.0],"metallicFactor":0.0,"roughnessFactor":0.267846435},"name":"15 - Defaultasda","extras":{"alphaMode":"Auto","depthWrite":true,"depthTest":true,"dithering":false}},{"pbrMetallicRoughness":{"baseColorFactor":[0.003921569,0.003921569,0.003921569,1.0],"metallicFactor":0.0,"roughnessFactor":0.495433748},"name":"14 - Default","extras":{"alphaMode":"Auto","depthWrite":true,"depthTest":true,"dithering":false}}]}