<?xml version="1.0" encoding="utf-8"?>
<!-- Generator: Adobe Illustrator 26.1.0, SVG Export Plug-In . SVG Version: 6.00 Build 0)  -->
<svg version="1.1" id="Layer_1" xmlns="http://www.w3.org/2000/svg" xmlns:xlink="http://www.w3.org/1999/xlink" x="0px" y="0px"
	 viewBox="0 0 1536.9 269.8" style="enable-background:new 0 0 1536.9 269.8;" xml:space="preserve">
<style type="text/css">
	.st0{fill:#0054A4;}
	.st1{fill:#FFFFFF;}
	.st2{fill:#EB1D24;}
</style>
<g>
	<path class="st0" d="M1063.4,210.6l6.1-9.3l7.6-11.4h0l2.5-3.9h-74.1l-16.2,24.6h23.3l-23,34.6c-2.1,3.2-3.1,3.9-3.1,3.9
		s-1.1,0.6-4.3,0.6H954c-1.6,0-2.5-0.1-2.9-0.2c0.2-0.5,0.7-1.5,1.8-3.1l67.2-101.4c2.1-3.2,3.1-4,3.1-4l0,0c0.1,0,1.1-0.5,4.3-0.5
		h28.2c1.7,0,2.5,0.2,2.9,0.2c-0.2,0.5-0.6,1.4-1.8,3.1l-19.8,29.9h50.7l20.8-31.3c4.7-7,6.3-12.5,5-16.3c-1.3-3.7-5.5-5.6-12.4-5.6
		h-94.7c-13.6,0-25.6,7.2-34.6,20.8l-70.6,106.4c-4.7,7-6.4,12.5-5,16.3c1.3,3.7,5.5,5.6,12.5,5.6h94.7c13.6,0,25.6-7.2,34.6-20.8
		L1063.4,210.6L1063.4,210.6z"/>
	<path class="st0" d="M571.2,120.4l-82.7,124.7c-2.1,3.2-3.2,3.9-3.2,3.9s-1.1,0.6-4.3,0.6h-30c-1.6,0-2.5-0.1-2.9-0.2
		c0.2-0.5,0.7-1.5,1.8-3.1l83.4-125.8h-50.7l-84.3,127.2c-4.7,7-6.4,12.5-5,16.3c1.3,3.7,5.5,5.6,12.5,5.6h96.6
		c13.6,0,25.6-7.2,34.6-20.8L622,120.4H571.2z"/>
	<path class="st0" d="M946.1,126.2c-1.3-3.7-5.5-5.6-12.4-5.6h-95c-13.6,0-25.6,7.2-34.6,20.8l-70.6,106.4c-4.7,7-6.4,12.5-5,16.3
		c1.3,3.7,5.5,5.6,12.5,5.6h95c13.6,0,25.6-7.2,34.6-20.8l70.6-106.4C945.8,135.4,947.5,129.9,946.1,126.2 M889.7,143.9l-67.2,101.4
		h0c-2.1,3.2-3.1,3.9-3.1,3.9c0,0-1.1,0.6-4.3,0.6h-28.7c-1.6,0-2.5-0.1-2.9-0.2c0.2-0.5,0.7-1.5,1.8-3.1L852.5,145
		c2.1-3.2,3.1-3.9,3.1-3.9h0c0,0,1.1-0.5,4.3-0.5h28.7c1.7,0,2.5,0.2,2.9,0.2C891.3,141.2,890.8,142.1,889.7,143.9"/>
	<polygon class="st0" points="1321.1,120.6 1222.2,269.6 1274.6,269.6 1373.4,120.6 	"/>
	<path class="st0" d="M1239.1,197.7l36.7-55.3c4.7-7,6.3-12.5,5-16.3c-1.3-3.7-5.5-5.6-12.4-5.6h-118.1l-98.8,149.1h50.7l33.9-51.2
		h11.7l-3.4,51.2h53.2l1.6-51.2h5.4C1218.1,218.5,1230.1,211.3,1239.1,197.7 M1224,143.9l-33.3,50.2c-2.1,3.2-3.2,3.8-3.2,3.8
		c0,0-1.1,0.6-4.2,0.6h-34l32.8-49.5l-0.3,0.2l-8.3-8.9h22.3l-0.2,0.1h27.4c1.7,0,2.5,0.2,2.9,0.2
		C1225.6,141.2,1225.2,142.1,1224,143.9"/>
	<path class="st0" d="M741.3,197.9l9.6-14.5l27.1-40.8c4.7-7,6.3-12.5,5-16.3c-1.3-3.7-5.5-5.6-12.5-5.6h-118l-98.8,149.1h50.7
		l33.9-51.2H650l-3.4,51.2h53.2l1.6-51.2h5.4C720.3,218.6,732.3,211.4,741.3,197.9 M726.2,144l-33.3,50.2c-2.1,3.2-3.2,3.8-3.2,3.9
		c0,0-1.1,0.6-4.2,0.6h-34.1l32.8-49.5l-0.3,0.2l-8.3-8.9H698l-0.2,0.1h27.3c1.7,0,2.5,0.2,2.9,0.2
		C727.8,141.3,727.4,142.3,726.2,144"/>
	<path class="st0" d="M1536.5,126.2c-1.3-3.7-5.5-5.6-12.4-5.6H1406l-98.8,149.1h50.7l30.9-46.6h68.4c13.6,0,25.6-7.2,34.6-20.8
		l39.7-59.9C1536.1,135.4,1537.8,129.9,1536.5,126.2 M1479.7,143.9l-36.4,54.8c-2.1,3.2-3.2,3.9-3.2,3.9s-1.1,0.6-4.2,0.6h-34.1
		l35.9-54.1l-0.3,0.2l-8.3-8.9h22.3l-0.2,0.1h27.4c1.7,0,2.5,0.2,2.9,0.2C1481.4,141.2,1480.9,142.1,1479.7,143.9"/>
	<polygon class="st0" points="389.3,206.7 405.6,182 337.2,182.2 360.1,148.3 351.9,139.6 439,139.6 451.6,119.9 328.8,119.9 
		230.5,268.9 357.3,268.9 370,249.3 293.4,248.8 321.2,206.6 	"/>
	<polygon class="st0" points="541.9,102.5 590.9,26.7 629.8,26.7 648,0.3 536.2,0.4 518,26.8 558.2,26.8 508.8,102.5 	"/>
	<path class="st0" d="M640.9,73.4l-8,26.7l-0.2,0.8l0.4,0.6c0.9,1.2,22,1.6,22.3,1.6h0c9.3-0.1,16.7-1.9,24.1-5.9
		c7.5-4.1,14.3-11.4,20.2-17.9c1.9-2.1,3.8-4.1,5.6-6l71.8-73.1l-34.5,0L675,69l21.7-68.7l-32.9,0l-0.6,2c-7,22.3-19.8,63.4-22,70.1
		L640.9,73.4z"/>
	<path class="st0" d="M783.3,64.4h38c7.2,0,5,5.3,1.6,8.3c-3.4,3-9.9,2.8-9.9,2.8h-56.6l-22.1,25.6c0,0,58.5,1.2,83.2,1.2
		c24.7,0,34.6-19.6,44.5-41c9.9-21.4-16.5-23.5-16.5-23.5h-37c-1.8,0-7.4-1.2-3.7-6.9c3.7-5.7,7.5-4.4,7.5-4.4h56.2L891.4,0
		c-14,0.4-53.5,0.2-71.8,0.2c-18.4,0-33.3,6.6-49.6,33.2C753.7,59.9,783.3,64.4,783.3,64.4"/>
	<polygon class="st1" points="287.3,164.6 237.6,164.6 220.1,191.4 269.8,191.4 	"/>
	<polygon class="st1" points="186.6,242 169.1,268.9 218.8,268.9 236.3,242 	"/>
	<polygon class="st2" points="260,119.9 234.2,158.4 291.5,158.4 317,119.9 	"/>
	<polygon class="st2" points="150.7,197 208.5,197 234.2,158.4 176.5,158.4 	"/>
	<polygon class="st2" points="182.8,235.5 132.7,235.5 110.3,269 160.4,269 182.8,235.5 240.5,235.5 266.2,197 208.5,197 	"/>
	<polygon class="st2" points="176.5,158.4 202.2,119.9 144.5,119.9 118.7,158.4 	"/>
	<polygon class="st2" points="86.7,119.9 29,119.9 3.2,158.4 61,158.4 	"/>
	<polygon class="st2" points="61,158.4 35.2,197 93,197 118.7,158.4 	"/>
</g>
</svg>
